<?xml version="1.0" standalone="no"?>
<!DOCTYPE svg PUBLIC "-//W3C//DTD SVG 20010904//EN"
 "http://www.w3.org/TR/2001/REC-SVG-20010904/DTD/svg10.dtd">
<svg version="1.0" xmlns="http://www.w3.org/2000/svg"
 width="1206.000000pt" height="1280.000000pt" viewBox="0 0 1206.000000 1280.000000"
 preserveAspectRatio="xMidYMid meet">
<g transform="translate(0.000000,1280.000000) scale(0.100000,-0.100000)"
fill="#000000" stroke="none">
<path d="M5510 12791 c-8 -5 -107 -25 -220 -46 -526 -95 -791 -157 -1080 -254
-332 -112 -527 -197 -983 -429 l-308 -157 -440 -352 -440 -352 -161 -183
c-403 -458 -582 -697 -935 -1246 -79 -123 -143 -232 -143 -243 0 -11 10 -38
22 -59 28 -49 17 -62 -21 -26 l-29 28 -27 -52 c-87 -171 -244 -554 -333 -810
-74 -211 -95 -287 -161 -570 -95 -407 -131 -608 -131 -736 0 -75 -13 -65 150
-109 66 -18 115 -36 115 -43 0 -14 -162 -142 -179 -142 -7 0 -27 25 -45 55
-19 31 -39 54 -45 52 -6 -2 -20 -18 -31 -36 -11 -18 -35 -55 -53 -84 l-33 -51
10 -121 c10 -113 14 -221 41 -1015 11 -314 11 -316 56 -540 101 -502 193 -825
404 -1420 l101 -284 297 -509 297 -508 269 -307 c148 -169 280 -323 295 -342
14 -19 44 -53 66 -75 22 -22 67 -71 100 -109 33 -37 69 -78 80 -91 27 -30 719
-585 770 -617 22 -13 267 -149 545 -300 l505 -276 261 -85 c370 -121 624 -189
1024 -273 l225 -48 315 -6 c173 -3 448 -9 611 -13 185 -5 305 -4 321 2 14 5
235 48 492 96 l468 86 206 75 c819 298 1190 498 1905 1032 l288 214 402 437
402 437 111 179 c250 403 348 574 467 811 178 357 328 743 485 1254 89 288
103 343 122 485 11 88 30 194 41 237 10 42 19 109 19 150 0 40 12 150 27 243
14 94 25 193 25 220 -14 745 -22 997 -31 1035 -6 25 -15 135 -21 245 l-9 200
-140 570 -141 570 -116 265 c-256 581 -409 871 -726 1378 l-140 223 -401 427
-400 427 -286 214 c-665 498 -961 659 -1801 975 l-335 126 -520 86 -520 87
-470 3 c-258 2 -477 0 -485 -5z m630 -107 l0 -57 -79 7 c-96 8 -137 21 -173
54 -51 47 -41 52 112 52 l140 0 0 -56z m-132 -137 c18 -18 29 -36 26 -40 -13
-13 -124 -8 -124 5 0 12 49 68 60 68 3 0 21 -15 38 -33z m129 -3 c3 -8 -2 -23
-11 -32 -15 -15 -17 -15 -32 0 -21 21 -11 48 16 48 11 0 23 -7 27 -16z m-280
-60 c3 -8 -2 -23 -11 -32 -15 -15 -17 -15 -32 0 -21 21 -11 48 16 48 11 0 23
-7 27 -16z m1837 -195 c17 -16 -1 -20 -90 -17 l-89 3 32 33 32 32 53 -21 c29
-11 57 -25 62 -30z m226 -164 l0 -95 -30 0 c-72 0 -361 76 -361 95 0 8 230 64
269 65 8 0 12 -15 12 -44 0 -25 4 -47 9 -50 5 -3 26 23 47 59 21 36 42 65 46
65 4 0 8 -43 8 -95z m-620 70 c17 -20 5 -45 -20 -45 -11 0 -23 7 -26 15 -6 15
11 45 26 45 4 0 13 -7 20 -15z m839 -124 c8 -14 7 -22 -4 -31 -19 -16 -45 -6
-45 18 0 36 33 45 49 13z m-1442 -833 c40 -45 57 -98 30 -98 -28 0 -83 80 -73
106 8 20 19 18 43 -8z m1051 -585 c5 -10 7 -24 5 -30 -6 -18 -42 -16 -49 2
-15 38 26 63 44 28z m153 -475 c16 -18 29 -36 29 -40 0 -5 -29 -8 -65 -8 -36
0 -65 3 -65 8 0 8 58 72 66 72 3 0 18 -15 35 -32z m-34 -124 c3 -8 -2 -23 -11
-32 -15 -15 -17 -15 -32 0 -21 21 -11 48 16 48 11 0 23 -7 27 -16z m-227 -69
c0 -13 -6 -25 -12 -28 -22 -7 -38 4 -38 28 0 13 6 25 13 28 21 7 37 -4 37 -28z
m268 -34 c19 -12 11 -45 -12 -49 -24 -5 -37 17 -25 40 11 20 18 22 37 9z m778
-100 c-16 -30 -65 -71 -85 -71 -18 0 -12 73 9 108 11 18 34 41 52 52 l33 20 3
-39 c2 -22 -4 -53 -12 -70z m126 -6 c5 -22 8 -58 6 -80 l-3 -40 -52 -3 c-67
-4 -67 4 -6 136 21 44 45 38 55 -13z m-5747 -35 c0 -18 -6 -26 -22 -28 -18 -3
-23 1 -23 21 0 28 9 39 30 35 9 -2 15 -14 15 -28z m5295 15 c17 -20 5 -45 -20
-45 -11 0 -23 7 -26 15 -6 15 11 45 26 45 4 0 13 -7 20 -15z m-282 -54 c21
-13 10 -46 -16 -49 -27 -4 -40 22 -22 43 14 17 20 18 38 6z m390 0 c21 -13 10
-46 -16 -49 -27 -4 -40 22 -22 43 14 17 20 18 38 6z m-601 -73 c40 -45 57 -98
30 -98 -28 0 -83 80 -73 106 8 20 19 18 43 -8z m382 -52 c15 -18 3 -46 -20
-46 -22 0 -34 22 -25 45 7 19 30 19 45 1z m183 -142 c43 -82 77 -157 78 -166
0 -13 -35 -35 -120 -78 -67 -33 -125 -58 -130 -55 -38 24 33 107 118 140 29
11 52 22 52 25 0 4 -12 17 -26 31 -35 33 -59 83 -74 152 -13 63 -7 111 13 105
7 -2 47 -71 89 -154z m-5414 104 c2 -28 -3 -43 -27 -71 -45 -50 -62 -51 -131
-6 -77 49 -79 63 -9 73 19 3 59 14 89 25 30 11 60 18 65 17 6 -1 11 -19 13
-38z m5252 -135 c0 -5 -41 -33 -90 -63 -49 -30 -90 -58 -90 -61 0 -4 22 -21
49 -39 27 -17 55 -38 61 -46 11 -12 6 -14 -26 -14 -39 0 -169 41 -187 59 -14
14 77 107 138 142 36 21 64 29 98 29 26 0 47 -3 47 -7z m470 -12 c0 -5 -7 -46
-15 -92 -31 -164 -65 -226 -81 -144 -13 71 17 196 54 226 27 20 42 24 42 10z
m-822 -127 c4 -28 -28 -41 -45 -19 -16 23 -5 47 21 43 13 -2 22 -11 24 -24z
m890 -1 c-2 -20 -9 -28 -23 -28 -14 0 -21 8 -23 28 -3 23 0 27 23 27 23 0 26
-4 23 -27z m-687 -210 c38 -36 69 -72 69 -79 0 -22 -20 -26 -45 -10 -42 28
-50 21 -69 -59 -10 -41 -22 -77 -27 -81 -5 -3 -9 21 -9 54 0 32 -3 100 -6 150
-5 70 -4 92 5 92 7 0 44 -30 82 -67z m-7283 -86 c3 -23 0 -27 -22 -27 -21 0
-26 5 -26 23 0 13 3 27 7 31 15 14 38 0 41 -27z m-130 -130 l63 -94 -23 -133
c-13 -73 -28 -135 -35 -137 -6 -2 -22 16 -36 40 -14 24 -33 50 -43 58 -14 12
-19 10 -38 -14 -12 -15 -57 -95 -100 -177 -72 -138 -104 -183 -91 -127 2 12 9
51 15 86 23 130 85 312 175 509 21 45 41 82 44 82 4 0 35 -42 69 -93z m7258
-99 l27 -33 -63 -3 c-34 -2 -65 -1 -67 2 -10 10 39 66 57 66 10 0 31 -15 46
-32z m-2946 -363 c0 -13 -6 -25 -12 -28 -22 -7 -38 4 -38 28 0 13 6 25 13 28
21 7 37 -4 37 -28z m-4412 -94 c21 -13 10 -46 -16 -49 -27 -4 -40 22 -22 43
14 17 20 18 38 6z m238 -205 c-3 -78 -15 -182 -25 -232 -17 -84 -64 -204 -79
-204 -4 0 -7 118 -7 263 l0 262 49 32 c26 18 53 30 58 26 7 -4 9 -53 4 -147z
m9799 124 c0 -18 -6 -26 -22 -28 -18 -3 -23 1 -23 21 0 28 9 39 30 35 9 -2 15
-14 15 -28z m-10015 -85 c9 -27 20 -60 24 -72 5 -17 -4 -33 -43 -77 -28 -31
-60 -75 -72 -98 -22 -42 -39 -168 -24 -168 5 0 30 14 57 31 26 17 54 29 61 26
18 -7 87 -124 87 -146 0 -24 -97 -160 -208 -292 -70 -83 -88 -100 -90 -83 -4
28 37 327 46 336 4 4 30 8 57 10 l50 3 -90 74 c-49 41 -92 76 -94 78 -5 4 60
380 71 411 7 21 13 23 79 20 l72 -3 17 -50z m3482 -22 c37 -33 14 -103 -34
-103 -50 0 -76 64 -41 102 20 22 51 23 75 1z m-767 -73 c0 -18 -6 -26 -21 -28
-26 -4 -40 24 -23 45 18 21 44 11 44 -17z m4070 0 c0 -18 -6 -26 -21 -28 -26
-4 -40 24 -23 45 18 21 44 11 44 -17z m-284 -124 c-19 -20 -38 -33 -43 -30
-10 6 -11 118 -1 128 4 4 23 -9 42 -28 l35 -36 -33 -34z m110 0 c-19 -20 -38
-33 -43 -30 -10 6 -11 118 -1 128 4 4 23 -9 42 -28 l35 -36 -33 -34z m-6903
66 c4 -28 -24 -40 -45 -19 -14 13 -14 19 -3 32 18 22 44 15 48 -13z m7182 18
c18 -10 70 -87 70 -104 0 -4 -26 -6 -57 -4 -57 3 -58 4 -61 34 -3 30 12 84 23
84 4 0 15 -5 25 -10z m-488 -97 l3 -57 107 -29 c59 -16 109 -35 111 -41 3 -7
3 -34 0 -60 -10 -88 -53 -76 -184 51 -54 52 -101 104 -105 115 -4 14 3 29 22
49 15 16 31 29 35 29 5 0 9 -26 11 -57z m3896 19 c4 -28 -24 -40 -45 -19 -14
13 -14 19 -3 32 18 22 44 15 48 -13z m-6759 -197 c82 -165 86 -191 29 -189
-50 2 -66 17 -74 72 -7 49 -38 209 -50 259 -15 59 23 3 95 -142z m6476 135 c0
-29 -32 -41 -41 -16 -9 24 4 48 23 44 12 -2 18 -12 18 -28z m110 0 c0 -16 -6
-26 -18 -28 -19 -4 -32 20 -23 44 9 25 41 13 41 -16z m-7797 -58 c4 -28 -24
-41 -44 -20 -20 20 -7 50 20 46 13 -2 22 -12 24 -26z m169 -48 c3 -8 -2 -23
-11 -32 -15 -15 -17 -15 -32 0 -21 21 -11 48 16 48 11 0 23 -7 27 -16z m7078
-4 c9 -15 -59 -80 -84 -80 -38 0 -22 40 29 74 28 18 46 20 55 6z m-6258 -52
c13 -12 23 -30 23 -39 0 -27 -40 -129 -51 -129 -5 0 -9 43 -9 95 0 52 3 95 7
95 4 0 17 -10 30 -22z m2747 -5 c4 -9 1 -23 -7 -30 -7 -8 -21 -11 -30 -7 -17
6 -23 35 -10 47 12 13 41 7 47 -10z m-1960 -63 l25 -31 -20 -52 c-12 -29 -23
-58 -26 -64 -3 -7 -9 -10 -14 -7 -12 7 -12 184 0 184 5 0 21 -14 35 -30z
m-1776 -6 c4 -28 -28 -41 -45 -19 -16 23 -5 47 21 43 13 -2 22 -11 24 -24z
m169 10 c3 -8 -2 -23 -11 -32 -15 -15 -17 -15 -32 0 -21 21 -11 48 16 48 11 0
23 -7 27 -16z m7921 -23 c6 -58 -5 -81 -38 -81 -40 0 -80 17 -80 34 0 20 81
87 100 84 9 -2 16 -16 18 -37z m-4744 -36 c7 -19 -21 -46 -39 -39 -18 7 -20
35 -4 51 14 14 35 7 43 -12z m4011 -80 l0 -80 -34 2 c-21 1 -43 10 -58 25 -26
26 -66 122 -55 132 3 4 38 5 77 4 l70 -3 0 -80z m-6253 18 c15 -15 28 -31 28
-37 0 -12 -50 -66 -62 -66 -4 0 -8 29 -8 65 0 36 3 65 7 65 4 0 20 -12 35 -27z
m-994 -66 c3 -23 0 -27 -22 -27 -21 0 -26 5 -26 23 0 13 3 27 7 31 15 14 38 0
41 -27z m110 -1 c3 -24 0 -27 -20 -24 -26 3 -37 36 -16 49 20 13 33 5 36 -25z
m1492 -41 c134 -9 126 -4 133 -88 4 -40 18 -107 32 -150 14 -43 25 -81 25 -86
0 -8 -177 -61 -205 -61 -26 0 -306 162 -303 175 2 7 45 61 96 119 66 75 98
105 110 102 9 -2 60 -7 112 -11z m5419 1 c15 -18 3 -46 -20 -46 -22 0 -34 22
-25 45 7 19 30 19 45 1z m166 -76 c0 -18 -6 -26 -22 -28 -18 -3 -23 1 -23 21
0 28 9 39 30 35 9 -2 15 -14 15 -28z m-7297 -118 c4 -28 -24 -40 -45 -19 -14
13 -14 19 -3 32 18 22 44 15 48 -13z m824 -49 c15 -15 28 -32 28 -39 0 -15
-48 -74 -61 -74 -5 0 -9 32 -9 70 0 39 3 70 7 70 4 0 20 -12 35 -27z m-3010
-280 c27 -29 16 -43 -57 -78 -52 -24 -85 -32 -85 -19 0 13 44 129 53 141 11
15 54 -7 89 -44z m9822 40 c9 -21 -16 -46 -37 -37 -17 6 -23 35 -10 47 12 13
41 7 47 -10z m-2844 -72 c0 -22 -58 -71 -83 -71 -31 0 -28 21 8 55 41 39 75
46 75 16z m658 -7 c34 -15 62 -33 62 -41 0 -24 -52 -93 -70 -93 -18 0 -38 35
-65 111 -8 23 -15 43 -15 45 0 10 30 2 88 -22z m-8306 -41 c15 -15 28 -31 28
-37 0 -12 -50 -66 -62 -66 -4 0 -8 29 -8 65 0 36 3 65 7 65 4 0 20 -12 35 -27z
m4028 -14 c0 -11 -2 -19 -4 -19 -2 0 -11 -3 -19 -6 -25 -9 -41 31 -21 51 19
19 44 4 44 -26z m110 -115 c0 -19 -5 -24 -25 -24 -20 0 -25 5 -25 24 0 13 6
26 13 29 22 7 37 -4 37 -29z m4120 -219 c17 -20 5 -45 -20 -45 -23 0 -35 22
-26 45 7 19 30 19 46 0z m-2002 -193 c4 -28 -24 -41 -44 -20 -20 20 -7 50 20
46 13 -2 22 -12 24 -26z m4628 13 c7 -18 -13 -45 -33 -45 -17 0 -27 24 -19 45
7 20 45 19 52 0z m-6468 -73 c4 -29 -26 -42 -44 -18 -17 24 -6 48 20 44 13 -2
22 -12 24 -26z m-3639 -224 c16 -18 28 -36 25 -40 -8 -13 -124 -10 -124 4 0
13 49 68 61 68 5 0 21 -14 38 -32z m6031 -113 c17 -20 5 -45 -20 -45 -11 0
-23 7 -26 15 -6 15 11 45 26 45 4 0 13 -7 20 -15z m110 0 c17 -20 5 -45 -20
-45 -11 0 -23 7 -26 15 -6 15 11 45 26 45 4 0 13 -7 20 -15z m564 -300 c8 -23
-4 -45 -25 -45 -22 0 -34 22 -25 45 3 8 14 15 25 15 10 0 21 -7 25 -15z m51
-195 c0 -16 -6 -26 -18 -28 -19 -4 -32 20 -23 44 9 25 41 13 41 -16z m3 -117
c-2 -20 -9 -28 -23 -28 -14 0 -21 8 -23 28 -3 23 0 27 23 27 23 0 26 -4 23
-27z m616 10 c4 -9 1 -23 -7 -30 -7 -8 -21 -11 -30 -7 -17 6 -23 35 -10 47 12
13 41 7 47 -10z m-7585 -347 c15 -18 3 -46 -20 -46 -22 0 -34 22 -25 45 7 19
30 19 45 1z m7683 -303 c15 -15 28 -32 28 -38 0 -11 -55 -75 -64 -75 -3 0 -6
32 -6 70 0 39 3 70 7 70 4 0 20 -12 35 -27z m1233 -13 c0 -16 -6 -26 -18 -28
-19 -4 -32 20 -23 44 9 25 41 13 41 -16z m-2565 -135 c9 -27 21 -50 27 -52 7
-3 30 8 53 23 22 15 42 25 45 23 2 -3 -6 -22 -18 -44 -27 -48 -93 -85 -152
-85 -23 0 -44 3 -48 6 -9 9 56 185 67 181 5 -2 17 -25 26 -52z m1099 -70 c39
-33 71 -67 71 -75 0 -20 -31 -101 -51 -130 -12 -18 -24 -24 -51 -23 -43 1
-229 74 -225 88 2 5 53 24 113 41 60 17 109 35 109 40 0 5 -13 32 -28 61 -43
83 -38 83 62 -2z m191 -30 c0 -29 -25 -39 -45 -19 -8 9 -15 17 -15 19 0 2 7
10 15 19 20 20 45 10 45 -19z m-171 -284 c8 -14 7 -22 -4 -31 -19 -16 -45 -6
-45 18 0 36 33 45 49 13z m-439 -216 l0 -125 -38 0 c-58 0 -76 18 -69 69 5 43
80 181 97 181 6 0 10 -52 10 -125z m372 -22 c15 -15 28 -34 28 -43 0 -16 -49
-70 -63 -70 -4 0 -7 32 -7 70 0 39 3 70 7 70 4 0 20 -12 35 -27z m-264 -71 c4
-28 -24 -41 -44 -20 -20 20 -7 50 20 46 13 -2 22 -12 24 -26z m-221 -108 c3
-8 -2 -23 -11 -32 -15 -15 -17 -15 -32 0 -21 21 -11 48 16 48 11 0 23 -7 27
-16z m1041 -117 c18 -18 29 -36 26 -40 -13 -13 -124 -8 -124 5 0 12 49 68 60
68 3 0 21 -15 38 -33z m-291 -138 c32 -205 35 -189 -46 -222 -37 -15 -74 -25
-82 -21 -8 4 -36 31 -63 60 l-48 53 27 110 27 110 72 30 c39 17 75 29 80 28 6
-2 20 -68 33 -148z m-1427 26 c17 -20 5 -45 -20 -45 -11 0 -23 7 -26 15 -6 15
11 45 26 45 4 0 13 -7 20 -15z m-3395 -195 c0 -18 -6 -26 -22 -28 -24 -3 -29
11 -17 43 10 25 39 14 39 -15z m5015 -50 c13 -25 -1 -75 -38 -135 -48 -78
-146 -205 -158 -205 -19 0 -134 161 -134 188 0 19 273 172 307 172 7 0 17 -9
23 -20z m-387 -174 c8 -21 -17 -50 -37 -43 -16 6 -22 38 -9 50 11 12 41 7 46
-7z m-115 -133 c-2 -20 -9 -28 -23 -28 -14 0 -21 8 -23 28 -3 23 0 27 23 27
23 0 26 -4 23 -27z m-4336 -62 c31 -25 108 -124 108 -139 0 -7 -14 -12 -31
-12 l-31 0 36 -47 c66 -87 93 -153 63 -153 -50 0 -211 301 -191 355 8 20 16
19 46 -4z m2718 -276 c17 -20 5 -45 -20 -45 -23 0 -35 22 -26 45 7 19 30 19
46 0z m-725 -75 c0 -29 -32 -41 -41 -16 -9 24 4 48 23 44 12 -2 18 -12 18 -28z
m2607 -47 c15 -15 28 -30 28 -35 0 -4 -29 -8 -65 -8 -36 0 -65 3 -65 7 0 11
53 63 64 63 5 0 23 -12 38 -27z m-4400 -60 c15 -15 28 -34 28 -43 0 -16 -49
-70 -63 -70 -4 0 -7 32 -7 70 0 39 3 70 7 70 4 0 20 -12 35 -27z m1358 10 c0
-5 -12 -26 -25 -48 -14 -22 -25 -43 -25 -47 0 -4 26 -15 58 -23 118 -33 118
-38 2 -49 l-105 -11 -18 -35 c-10 -19 -36 -75 -59 -125 -37 -80 -42 -87 -49
-65 -4 14 -7 44 -8 68 l-1 42 -81 0 c-44 0 -79 -3 -77 -7 2 -5 14 -29 28 -55
26 -52 23 -64 -14 -54 -28 7 -30 15 -50 202 -12 104 -12 121 2 136 20 24 91
57 143 67 55 11 279 14 279 4z m105 -23 c0 -18 -6 -26 -23 -28 -13 -2 -25 3
-28 12 -10 26 4 48 28 44 17 -2 23 -10 23 -28z m-947 -58 c4 -28 -24 -41 -44
-20 -20 20 -7 50 20 46 13 -2 22 -12 24 -26z m102 -127 c0 -80 -4 -145 -8
-145 -5 0 -16 25 -26 55 -9 30 -21 55 -26 55 -5 0 -25 -27 -45 -60 -20 -33
-41 -57 -47 -54 -14 9 -1 69 29 128 31 61 104 166 115 166 4 0 8 -65 8 -145z
m126 68 c24 -16 44 -35 44 -43 0 -18 -35 -113 -52 -140 -15 -24 -34 -26 -42
-4 -9 25 -20 180 -13 198 8 21 13 21 63 -11z m384 -359 c0 -19 -5 -24 -25 -24
-20 0 -25 5 -25 24 0 13 6 26 13 29 22 7 37 -4 37 -29z m-840 -159 c17 -20 5
-45 -20 -45 -23 0 -35 22 -26 45 7 19 30 19 46 0z m212 -2 c37 -33 11 -103
-38 -103 -49 0 -72 64 -37 102 20 22 51 23 75 1z m-487 -73 c0 -16 -6 -26 -19
-28 -25 -5 -39 12 -31 38 10 31 50 24 50 -10z m-60 -120 c0 -16 -6 -26 -18
-28 -19 -4 -32 20 -23 44 9 25 41 13 41 -16z m-49 -105 c7 -18 -13 -45 -33
-45 -17 0 -27 24 -19 45 7 20 45 19 52 0z m219 -605 c0 -18 -6 -26 -21 -28
-26 -4 -40 24 -23 45 18 21 44 11 44 -17z m3 -178 c4 -28 -24 -41 -44 -20 -20
20 -7 50 20 46 13 -2 22 -12 24 -26z"/>
</g>
</svg>
