<?xml version="1.0" standalone="no"?>
<!DOCTYPE svg PUBLIC "-//W3C//DTD SVG 20010904//EN"
 "http://www.w3.org/TR/2001/REC-SVG-20010904/DTD/svg10.dtd">
<svg version="1.0" xmlns="http://www.w3.org/2000/svg"
 width="1280.000000pt" height="1217.000000pt" viewBox="0 0 1280.000000 1217.000000"
 preserveAspectRatio="xMidYMid meet">
<g transform="translate(0.000000,1217.000000) scale(0.100000,-0.100000)"
fill="#000000" stroke="none">
<path d="M4570 11703 c0 -5 11 -53 24 -108 109 -451 158 -924 127 -1228 -70
-678 -439 -863 -958 -479 -48 36 -161 139 -250 228 -90 90 -163 162 -163 160
0 -2 23 -43 52 -92 117 -202 209 -427 243 -594 24 -116 17 -282 -14 -362 -29
-75 -103 -156 -180 -197 -194 -103 -534 -76 -942 74 -166 62 -547 251 -743
369 -88 53 -160 95 -162 94 -1 -2 43 -41 99 -88 150 -125 500 -478 601 -605
176 -222 286 -407 348 -585 30 -87 32 -105 33 -220 0 -117 -2 -129 -29 -187
-114 -247 -477 -328 -1011 -227 -71 13 -143 27 -160 29 -30 5 -30 5 -5 -6 500
-237 699 -387 803 -605 29 -64 32 -77 32 -169 0 -94 -2 -105 -34 -169 -66
-134 -234 -270 -451 -367 -317 -141 -704 -225 -1280 -275 -102 -9 -101 -9 120
-29 743 -67 1305 -256 1535 -517 71 -82 107 -164 113 -257 8 -142 -47 -259
-186 -398 -134 -134 -287 -228 -652 -401 -25 -12 -25 -12 5 -7 17 2 89 16 160
29 534 101 897 20 1011 -227 27 -58 29 -70 29 -187 -1 -115 -3 -133 -33 -219
-125 -362 -448 -759 -1012 -1245 -53 -45 -37 -38 114 54 408 246 796 413 1126
485 115 25 359 31 444 11 144 -34 262 -128 307 -244 28 -72 37 -234 19 -337
-29 -163 -129 -412 -248 -619 -29 -49 -52 -90 -52 -92 0 -2 73 70 163 160 184
185 298 274 442 346 128 64 205 84 310 78 227 -13 376 -200 441 -554 28 -152
26 -561 -4 -779 -26 -182 -60 -363 -103 -549 -17 -70 -29 -130 -27 -132 2 -2
28 54 57 124 80 191 229 490 320 640 406 673 831 910 1128 629 156 -147 274
-475 308 -859 7 -77 25 -109 25 -45 0 63 41 310 70 422 91 354 250 561 456
593 379 60 851 -468 1235 -1380 29 -70 55 -126 57 -124 2 2 -10 62 -27 132
-43 186 -77 367 -102 549 -28 195 -33 615 -11 749 66 389 227 586 477 586 86
0 165 -22 280 -80 144 -72 258 -161 444 -348 l163 -164 -47 84 c-127 227 -216
443 -250 608 -24 116 -17 282 14 362 45 116 163 210 307 244 85 20 329 14 444
-11 330 -72 718 -239 1126 -485 151 -92 167 -99 114 -54 -564 486 -887 883
-1012 1245 -30 86 -32 104 -33 219 0 117 2 129 29 187 114 247 477 328 1011
227 72 -13 144 -27 160 -29 30 -5 30 -5 5 7 -365 173 -518 267 -652 401 -138
137 -193 254 -187 396 5 92 42 176 114 259 231 261 792 450 1535 517 221 20
222 20 120 29 -576 50 -963 134 -1280 275 -217 97 -385 233 -451 367 -32 64
-34 75 -34 169 0 92 3 106 32 168 100 211 347 401 768 590 66 30 68 30 -130
-7 -534 -101 -897 -20 -1011 227 -27 58 -29 70 -29 187 1 114 3 133 32 217 64
183 172 366 349 588 101 127 452 480 601 605 56 47 100 86 99 88 -2 1 -74 -41
-162 -94 -196 -118 -577 -307 -743 -369 -323 -119 -615 -162 -814 -120 -140
29 -262 126 -308 243 -31 80 -38 246 -14 362 34 165 131 401 256 619 l42 74
-164 -165 c-178 -179 -292 -270 -427 -341 -405 -213 -683 -34 -774 499 -20
118 -16 553 6 714 26 190 64 399 102 564 19 81 33 150 31 152 -2 2 -28 -53
-57 -123 -152 -365 -338 -701 -519 -938 -62 -81 -223 -248 -292 -300 -394
-305 -729 -133 -879 450 -29 112 -70 359 -70 423 0 63 -18 31 -25 -45 -4 -43
-15 -130 -26 -193 -110 -653 -411 -922 -798 -713 -179 97 -387 317 -568 603
-127 201 -286 517 -382 758 -30 75 -41 95 -41 75z m2065 -2823 c537 -49 1027
-236 1449 -555 614 -462 1003 -1133 1102 -1902 23 -174 23 -513 0 -688 -122
-947 -700 -1757 -1551 -2175 -268 -132 -532 -214 -836 -261 -209 -33 -599 -33
-808 0 -304 47 -568 129 -836 261 -1149 565 -1769 1826 -1514 3083 185 913
815 1675 1684 2036 259 108 528 172 865 204 81 8 343 6 445 -3z"/>
<path d="M6150 8764 c-248 -30 -416 -66 -605 -128 -409 -137 -753 -351 -1060
-660 -373 -375 -621 -832 -726 -1341 -165 -799 28 -1606 537 -2245 87 -109
295 -316 404 -404 310 -248 675 -428 1050 -520 254 -61 342 -71 650 -71 310 1
430 15 678 80 363 96 713 272 1012 511 109 88 317 295 404 404 306 384 501
836 571 1322 22 153 30 421 16 581 -55 650 -320 1225 -776 1683 -417 419 -921
675 -1515 769 -101 16 -552 29 -640 19z"/>
</g>
</svg>
